<?xml version="1.0" encoding="utf-8"?>
<!-- Generator: Adobe Illustrator 25.1.0, SVG Export Plug-In . SVG Version: 6.00 Build 0)  -->
<svg version="1.1" id="Ebene_1" xmlns="http://www.w3.org/2000/svg" xmlns:xlink="http://www.w3.org/1999/xlink" x="0px" y="0px"
	 viewBox="0 0 1366 768" style="enable-background:new 0 0 1366 768;" xml:space="preserve">
<style type="text/css">
	.st0{fill:#FF5662;}
	.st1{fill:#21252D;}
</style>
<g>
	<path class="st0" d="M191.6,493c17.3-1.2,32-1.6,40.2-1.7"/>
	<path class="st0" d="M243.1,491.3c7.9,0.1,21.7,0.4,38.1,1.5"/>
	<path class="st0" d="M237.3,394.8c0,0-32.3,71.3-33.1,73.2c23.8-1.5,45.6-0.9,64.4,0C267.6,465.5,237.3,394.8,237.3,394.8z"/>
	<path class="st0" d="M313.1,495.8l23.2,51.7h-31.1l-24.1-54.6c-16.4-1.1-30.1-1.4-38.1-1.5h-11.3c-8.3,0.1-22.9,0.5-40.2,1.7
		l-25.3,54.5h-30.6l23.9-51.4c-45.1,5.6-86.6,18-86.6,44.8c0,48.2,147,49.6,164.5,49.6c17.4,0,164.5-1.4,164.5-49.6
		C401.9,513.5,358.9,501.3,313.1,495.8z"/>
	<path class="st0" d="M302.1,471.2c28.9,3,57.4,8.7,86.1,17.1c0,0-136.8-278.5-149.7-303.2c-14,25.7-149.6,303.1-149.6,303.1
		c27.4-8,54.5-13.5,82.1-16.6l66.8-143.5L302.1,471.2z"/>
</g>
<g>
	<path class="st1" d="M548.4,428h-39.5l-10.3,22.4h-15l45.6-98l44,98h-15.2L548.4,428z M542.7,415l-13.7-31.3L514.7,415H542.7z"/>
	<path class="st1" d="M625,450.4l19.4-99.1L676,423l32.8-71.6l17.4,99.1H712l-8.9-55.6l-27.3,59.9l-26.5-59.9l-9.9,55.7H625z"/>
	<path class="st1" d="M789.2,450.4v-92.2H803c6.2,0,11.1,0.5,14.7,1.4c3.7,1,6.8,2.6,9.4,4.8c2.6,2.3,4.6,5.3,6.1,8.8
		c1.6,3.5,2.3,7.1,2.3,10.7c0,6.6-2.5,12.2-7.6,16.8c4.9,1.7,8.8,4.6,11.6,8.8c2.9,4.1,4.3,9,4.3,14.4c0,7.2-2.5,13.3-7.6,18.3
		c-3.1,3.1-6.5,5.2-10.3,6.4c-4.2,1.2-9.4,1.7-15.7,1.7H789.2z M803.1,397.8h4.4c5.2,0,9-1.1,11.4-3.4c2.4-2.3,3.6-5.7,3.6-10.1
		c0-4.3-1.2-7.6-3.7-9.9c-2.5-2.3-6-3.4-10.7-3.4h-4.9V397.8z M803.1,437.3h8.6c6.3,0,10.9-1.2,13.8-3.7c3.1-2.7,4.7-6,4.7-10.1
		c0-4-1.5-7.3-4.5-10c-2.9-2.7-8.1-4-15.6-4h-7V437.3z"/>
	<path class="st1" d="M918.8,358.2v92.2h-13.9v-92.2H918.8z"/>
	<path class="st1" d="M1035.2,371.3h-37v22.1h35.9v13.1h-35.9v30.8h37v13.1h-50.9v-92.2h50.9V371.3z"/>
	<path class="st1" d="M1096.8,450.4V352l67.2,70.3v-64.1h13.9V456l-67.2-70.1v64.5H1096.8z"/>
	<path class="st1" d="M1268.9,371.3v79.1H1255v-79.1h-21.2v-13.1h56.2v13.1H1268.9z"/>
</g>
</svg>
